<svg width="739" height="786" viewBox="0 0 739 786" fill="none" xmlns="http://www.w3.org/2000/svg">
<g style="mix-blend-mode:multiply">
<path d="M587.411 104.875C435.711 122.061 358.9 3.47736 256.624 0.0904609C156.271 -3.21281 98.3175 84.1776 133.943 225.006C174.376 385.068 98.4012 466.395 105.468 596.77C108.436 651.588 163.087 729.487 230.908 722.211C319.971 712.427 356.015 609.983 434.708 539.402C505.331 476.054 628.305 432.15 702.315 385.946C774.861 340.662 860.579 307.713 867.311 210.329C871.827 145.769 814.752 79.0763 587.411 104.875Z" fill="#5DCEFF"/>
</g>
<g style="mix-blend-mode:multiply">
<path d="M770.834 489.233C723.668 566.588 631.051 534.977 552.818 528.078C399.446 514.53 295.414 718.33 134.348 613.001C-43.9454 496.383 -44.907 284.472 132.424 203.228C628.668 -24.7812 813.651 419.028 770.834 489.233Z" fill="#5D8EFF"/>
</g>
<path d="M64.9373 195.184C81.0793 195.184 94.1649 184.213 94.1649 170.681C94.1649 157.148 81.0793 146.178 64.9373 146.178C48.7953 146.178 35.7096 157.148 35.7096 170.681C35.7096 184.213 48.7953 195.184 64.9373 195.184Z" fill="#5D8EFF"/>
<path d="M122.599 102.734C122.309 105.008 121.37 107.15 119.894 108.903C118.417 110.657 116.467 111.947 114.276 112.62C112.084 113.293 109.745 113.32 107.54 112.697C105.334 112.074 103.354 110.829 101.838 109.109C100.322 107.39 99.3345 105.27 98.9932 103.003C98.6518 100.737 98.9714 98.4195 99.9136 96.3299C100.856 94.2403 102.381 92.4668 104.305 91.222C106.23 89.9772 108.473 89.3139 110.765 89.3116C112.428 89.4017 114.057 89.8222 115.556 90.5485C117.055 91.2748 118.394 92.2923 119.496 93.5418C120.597 94.7912 121.439 96.2475 121.972 97.8257C122.505 99.4039 122.718 101.072 122.599 102.734Z" fill="#5D8EFF"/>
<path d="M552.484 609.263C552.484 623.229 538.309 634.351 520.873 634.351C503.437 634.351 489.262 623.062 489.262 609.263C489.262 595.465 503.395 584.175 520.873 584.175C538.351 584.175 552.484 595.298 552.484 609.263Z" fill="#5D8EFF"/>
<path d="M609.35 579.827C609.35 587.353 601.866 593.458 592.625 593.458C583.384 593.458 575.899 587.353 575.899 579.827C575.899 572.3 583.426 566.195 592.625 566.195C601.824 566.195 609.35 572.3 609.35 579.827Z" fill="#5D8EFF"/>
<path d="M265.509 716.54C265.299 709.931 265.083 703.318 264.784 696.705C264.183 683.337 263.249 669.965 261.372 656.707C258.228 634.509 249.957 614.758 244.172 593.328C241.888 584.83 240.06 576.215 238.696 567.522C236.13 551.319 235.11 535.027 235.247 518.674C235.386 502.634 236.546 486.442 242.178 471.276C245.239 463.035 248.635 452.7 255.334 446.649C256.394 445.692 258.275 444.655 259.152 443.745C259.152 443.745 259.152 443.745 259.152 443.722C259.484 443.466 259.817 443.207 260.116 442.927C260.345 441.445 260.621 439.967 260.843 438.468C260.863 438.355 260.877 438.239 260.893 438.136C257.431 437.857 253.609 440.359 250.565 441.678C243.311 444.835 235.865 447.53 228.634 450.756C225.311 452.242 221.931 453.797 218.665 455.375C215.492 456.92 213.016 459.516 209.813 461.067C206.25 462.802 202.682 464.52 199.059 466.138C196.321 467.368 193.573 468.581 190.845 469.833C192.798 475.101 195.33 480.135 198.395 484.843C198.299 485.176 198.202 485.508 198.096 485.86C195.408 494.41 190.164 501.794 186.585 509.948C185.708 511.942 184.97 513.992 184.259 516.023C185.897 516.913 185.964 518.914 186.522 520.638C191.141 534.95 183.568 543.218 181.488 556.609C179.826 567.329 183.814 577.025 183.385 587.496C183.096 594.252 179.348 600.037 177.61 606.414C176.85 609.274 176.273 612.18 175.882 615.113C172.001 643.056 165.714 670.856 160.244 698.576C158.915 705.222 157.795 712.39 156.084 719.404C157.848 740.844 158.077 762.776 157.911 784.445H265.382C265.854 774.762 266.207 765.069 266.237 755.372C266.276 742.316 265.924 729.546 265.509 716.54ZM241.783 679.02C240.231 675.555 242.271 670.926 246.302 670.643C248.156 670.514 249.293 670.58 250.858 671.79C254.181 674.382 252.782 678.622 250.462 681.37C248.143 684.118 243.016 681.759 241.783 679.02ZM254.251 743.748C251.948 746.477 246.794 744.137 245.571 741.399C244.019 737.93 246.059 733.304 250.084 733.022C251.941 732.892 253.091 732.959 254.643 734.168C257.969 736.76 256.563 741 254.251 743.748Z" fill="#D1DEFF"/>
<path d="M185.007 295.245C185.243 295.395 185.442 295.599 185.585 295.84C185.728 296.081 185.813 296.353 185.832 296.633C185.851 296.912 185.804 297.193 185.695 297.451C185.585 297.709 185.417 297.938 185.203 298.119C184.136 298.987 182.913 299.116 181.617 298.94C179.829 298.694 177.962 298.578 176.181 298.488C174.067 298.385 171.944 298.372 169.827 298.302C168.292 298.246 165.581 298.535 164.348 297.412C162.779 295.976 164.119 294.577 165.77 294.235C167.275 293.929 168.84 294.235 170.332 294.305C171.419 294.348 172.529 294.401 173.629 294.441C175.978 294.521 178.331 294.481 180.68 294.504C182.119 294.524 183.737 294.444 185.007 295.245Z" fill="#FFBC3B"/>
<path d="M170.316 261.175C172.31 261.301 172.17 263.501 170.95 264.498C170.781 265.162 169.731 265.352 169.193 265.754C168.388 266.355 163.986 269.765 163.301 270.496C162.686 271.16 161.952 271.492 161.221 272.004C160.264 272.689 157.084 275.114 156.064 273.23C155.761 272.672 155.971 271.941 156.27 271.443C156.934 270.343 158.167 269.549 159.26 268.96C160.297 268.412 161.463 267.661 162.201 266.741C162.939 265.82 167.375 262.753 168.229 262.088C168.827 261.593 169.525 261.118 170.316 261.175Z" fill="#FFBC3B"/>
<path d="M170.313 331.512C170.375 331.785 170.372 332.07 170.304 332.342C170.237 332.614 170.106 332.866 169.922 333.079C169.739 333.291 169.508 333.457 169.248 333.563C168.989 333.67 168.708 333.714 168.428 333.692C167.059 333.559 166.102 332.791 165.302 331.751C164.205 330.322 162.975 328.93 161.759 327.607C160.33 326.042 158.832 324.544 157.383 323.002C156.326 321.879 154.196 320.184 154.113 318.512C154.003 316.389 155.944 316.339 157.356 317.26C158.642 318.094 159.533 319.423 160.55 320.516C161.294 321.317 162.045 322.131 162.796 322.935C164.411 324.643 166.119 326.258 167.761 327.943C168.774 328.963 169.97 330.056 170.313 331.512Z" fill="#FFBC3B"/>
<path d="M148.039 297.804C148.527 300.864 145.002 300.758 142.772 300.628C143.409 299.288 144.307 298.088 145.414 297.099C146.51 296.149 147.77 296.109 148.039 297.804Z" fill="#FFBC3B"/>
<path d="M142.503 338.427C142.503 338.52 142.187 338.38 142.014 338.321C141.682 338.218 141.35 338.091 141.017 337.962C140.349 337.664 139.658 337.422 138.95 337.237C135.325 336.38 131.716 335.084 128.171 333.954H128.071C128.071 332.957 128.121 331.911 128.071 330.91C128.028 330.269 127.789 329.541 127.765 328.853H127.818C127.818 329.186 134.341 331.415 134.953 331.602C137.325 332.313 139.741 332.781 141.961 333.908C142.243 334.051 142.626 334.419 142.898 334.323H143.021C143.031 335.71 142.925 337.094 142.705 338.463L142.503 338.427Z" fill="#DEDEDE"/>
<path d="M142.014 338.321C142.187 338.38 142.503 338.52 142.503 338.427L142.699 338.46C142.642 338.819 142.569 339.175 142.486 339.527C142.224 340.6 142.061 341.65 141.516 342.62C141.362 342.892 141.193 343.155 141.011 343.408L140.974 343.385C140.014 342.999 139.037 342.444 138.023 342.112C134.867 341.079 131.676 339.693 128.619 338.394H128.287C128.309 337.471 128.275 336.548 128.184 335.629C128.114 335.072 128.08 334.512 128.081 333.951H128.181C131.726 335.081 135.335 336.377 138.96 337.234C139.668 337.419 140.359 337.661 141.027 337.958C141.333 338.091 141.689 338.218 142.014 338.321Z" fill="#DEDEDE"/>
<path d="M132.228 327.172H132.182C131.929 323.517 130.786 320.008 130.231 316.386C129.54 311.84 129.121 307.012 127.536 302.668C127.279 301.974 126.988 301.293 126.662 300.628L127.403 300.585C128.296 300.486 129.171 300.262 130.002 299.92C130.901 299.551 131.718 299.008 132.408 298.322C133.072 297.721 133.906 297.156 134.401 296.401L134.564 296.142C135.738 297.891 137.444 299.216 139.429 299.92C140.258 300.263 141.132 300.487 142.024 300.585L142.765 300.628C142.437 301.291 142.146 301.973 141.895 302.668C140.303 307.012 139.901 311.84 139.193 316.386C138.695 319.662 137.532 323.012 137.492 326.338C137.492 326.644 137.538 326.956 137.542 327.262C135.767 327.275 133.979 327.222 132.228 327.172Z" fill="#FFBC3B"/>
<path d="M140.974 343.371L141.011 343.395C140.595 343.982 140.101 344.51 139.542 344.963C138.18 346.066 136.006 346.219 134.345 346.003C133.356 345.856 132.412 345.495 131.578 344.944C130.744 344.394 130.04 343.668 129.517 342.817C128.963 341.952 128.586 340.986 128.407 339.975C128.327 339.449 128.287 338.917 128.287 338.384H128.619C131.677 339.683 134.867 341.069 138.023 342.102C139.037 342.444 140.004 342.999 140.974 343.371Z" fill="#DEDEDE"/>
<path d="M135.784 290.769C135.823 292.597 135.521 294.567 134.571 296.155C133.715 294.886 133.135 293.452 132.866 291.945C132.643 290.726 132.643 288.486 133.936 287.772C135.229 287.057 135.774 290.081 135.784 290.769Z" fill="#FFBC3B"/>
<path d="M135.571 247.637C135.99 248.182 135.491 249.122 135.475 249.794C135.455 250.79 135.425 256.366 135.578 257.357C135.717 258.247 135.524 259.018 135.488 259.925C135.435 261.102 135.385 265.096 133.271 264.744C132.647 264.641 132.198 264.022 131.992 263.481C131.53 262.281 131.66 260.822 131.889 259.583C132.095 258.43 132.221 257.044 131.952 255.901C131.696 254.808 132.012 249.368 131.995 248.278C131.995 247.524 132.039 246.683 132.567 246.092C133.903 244.596 135.538 246.069 135.571 247.637Z" fill="#FFBC3B"/>
<path d="M132.228 327.172C132.228 327.218 132.228 327.245 132.188 327.291C132.188 327.251 132.188 327.212 132.188 327.172H132.228Z" fill="#8CC295"/>
<path d="M128.749 327.089L128.357 327.285L128.26 326.989C127.791 325.661 127.17 324.391 126.41 323.204C124.489 320.26 121.279 318.885 118.664 316.755C112.367 311.594 108.456 303.446 108.03 295.262C107.349 282.026 117.447 269.515 131.022 269.21C136.95 269.073 143.603 270.346 148.421 273.892C153.187 277.323 156.699 282.222 158.42 287.838C160.14 293.454 159.974 299.478 157.948 304.991C156.945 307.791 155.513 310.419 153.704 312.78C151.764 315.319 148.883 316.861 146.899 319.277C145.098 321.463 142.579 323.67 142.333 326.677L142.3 327.009L142.12 327.082C140.619 327.215 139.09 327.265 137.548 327.275C137.548 326.969 137.498 326.657 137.498 326.351C137.525 323.028 138.701 319.675 139.2 316.399C139.894 311.853 140.309 307.025 141.901 302.682C142.153 301.986 142.443 301.305 142.772 300.641C145.002 300.771 148.527 300.877 148.039 297.817C147.77 296.122 146.51 296.155 145.414 297.112C144.307 298.101 143.409 299.301 142.772 300.641L142.031 300.598C141.139 300.5 140.265 300.276 139.436 299.934C137.45 299.229 135.745 297.905 134.571 296.155C135.521 294.567 135.823 292.597 135.784 290.769C135.784 290.081 135.249 287.054 133.936 287.778C132.623 288.503 132.643 290.732 132.866 291.952C133.135 293.459 133.716 294.893 134.571 296.162L134.408 296.421C133.906 297.176 133.079 297.75 132.414 298.342C131.725 299.028 130.908 299.571 130.008 299.94C129.177 300.282 128.303 300.506 127.41 300.605L126.669 300.648C126.027 299.306 125.123 298.107 124.01 297.119C122.914 296.169 121.658 296.122 121.385 297.824C120.9 300.884 124.422 300.778 126.655 300.648C126.981 301.313 127.273 301.994 127.529 302.688C129.114 307.032 129.523 311.86 130.224 316.406C130.779 320.028 131.922 323.55 132.175 327.192C131.032 327.139 129.869 327.089 128.749 327.089Z" fill="#FFBC3B"/>
<path d="M127.812 328.85H127.759C127.727 328.559 127.765 328.264 127.869 327.991C127.973 327.717 128.14 327.472 128.357 327.275L128.749 327.079C129.869 327.099 131.019 327.135 132.182 327.169C132.182 327.209 132.182 327.248 132.182 327.288C132.228 327.242 132.208 327.215 132.221 327.169C133.973 327.219 135.76 327.272 137.538 327.258C139.08 327.258 140.609 327.199 142.111 327.066L142.29 326.993C142.978 327.435 143.014 328.441 143.014 329.172C143.014 330.169 142.958 331.166 142.978 332.163C142.998 332.881 143.008 333.605 143.004 334.323H142.881C142.602 334.419 142.217 334.051 141.944 333.908C139.725 332.781 137.292 332.313 134.936 331.602C134.335 331.409 127.812 329.186 127.812 328.85Z" fill="#DEDEDE"/>
<path d="M124.017 297.099C125.129 298.087 126.033 299.286 126.675 300.628C124.442 300.758 120.92 300.864 121.405 297.804C121.664 296.109 122.92 296.149 124.017 297.099Z" fill="#FFBC3B"/>
<path d="M109.858 317.26C111.273 316.339 113.211 316.389 113.104 318.512C113.021 320.174 110.891 321.879 109.835 323.002C108.382 324.544 106.887 326.042 105.455 327.607C104.249 328.936 103.009 330.322 101.913 331.751C101.115 332.791 100.155 333.559 98.789 333.692C98.5093 333.714 98.2284 333.67 97.9688 333.563C97.7093 333.457 97.4783 333.291 97.2947 333.078C97.111 332.866 96.9798 332.614 96.9115 332.342C96.8432 332.07 96.8398 331.785 96.9016 331.512C97.2339 330.056 98.4435 328.963 99.457 327.943C101.118 326.281 102.807 324.643 104.421 322.935C105.172 322.131 105.927 321.317 106.668 320.516C107.681 319.423 108.575 318.094 109.858 317.26Z" fill="#FFBC3B"/>
<path d="M106.874 272.765C108.037 273.985 108.336 275.902 106.236 276.184C104.574 276.4 102.517 274.619 101.225 273.789C99.4438 272.642 97.6959 271.446 95.9081 270.323C94.3862 269.372 92.7912 268.412 91.1862 267.598C90.0198 267 89.0894 266.192 88.7039 264.873C88.6331 264.603 88.626 264.321 88.6834 264.048C88.7408 263.775 88.8611 263.519 89.0346 263.301C89.2081 263.082 89.4302 262.907 89.6831 262.79C89.936 262.672 90.2129 262.615 90.4917 262.623C91.987 262.69 93.283 263.67 94.4793 264.481C96.4265 265.81 98.3339 267.173 100.311 268.445C101.235 269.043 102.175 269.632 103.096 270.213C104.348 271.021 105.817 271.655 106.874 272.765Z" fill="#FFBC3B"/>
<path d="M101.457 294.235C103.119 294.567 104.448 295.976 102.88 297.412C101.647 298.535 98.9386 298.246 97.4034 298.302C95.2866 298.372 93.1633 298.385 91.0465 298.488C89.2555 298.578 87.3913 298.694 85.6135 298.94C84.3175 299.116 83.0914 298.987 82.0214 298.119C81.8087 297.937 81.6415 297.708 81.5333 297.45C81.4251 297.191 81.3788 296.911 81.3982 296.632C81.4176 296.353 81.502 296.082 81.6449 295.841C81.7877 295.6 81.9849 295.396 82.2207 295.245C83.4901 294.444 85.1117 294.517 86.5406 294.504C88.8899 294.481 91.2426 294.521 93.5919 294.441C94.6918 294.401 95.7951 294.348 96.8883 294.305C98.377 294.241 99.9421 293.929 101.457 294.235Z" fill="#FFBC3B"/>
<path d="M292.767 422.87V422.654C302.47 422.322 313.801 416.673 322.142 410.2L322.315 410.419C321.963 413.223 322.129 416.307 321.919 418.823C321.507 423.757 321.255 428.858 321.627 433.829C315.862 434.161 310.286 435.657 304.321 435.178C297.468 434.57 290.735 432.995 284.323 430.5C278.84 428.366 273.966 424.827 269.3 421.308C266.123 418.902 263.618 416.038 260.893 413.154C260.408 412.642 259.896 411.964 259.355 411.273C262.521 413.051 265.748 414.739 269.028 416.457C273.049 418.563 277.352 419.959 281.741 421.155C285.337 422.154 289.038 422.729 292.767 422.87Z" fill="#E39476"/>
<path d="M250.858 671.79C254.181 674.382 252.782 678.622 250.462 681.37C248.143 684.118 243.006 681.759 241.783 679.02C240.231 675.555 242.271 670.926 246.302 670.643C248.156 670.514 249.303 670.58 250.858 671.79Z" fill="#37628F"/>
<path d="M419.485 784.428H331.566C331.689 770.957 331.865 757.389 330.665 744.034C329.668 732.803 329.054 721.521 329.356 710.243C329.605 700.979 328.871 691.585 329.183 682.254C329.516 671.813 331.775 661.432 332.204 650.948C332.536 643.129 333.865 635.566 335.527 627.923C337.424 619.154 337.305 610.119 339.7 601.373C342.126 592.54 344.685 583.761 346.446 574.713C348.041 566.485 349.021 558.188 350.706 550C354.531 531.441 354.624 512.663 351.593 493.968C350.709 488.512 350.331 483.082 348.978 477.686C346.32 467.132 341.518 456.844 333.277 449.51C330.23 446.799 326.056 445.486 323.082 442.964C322.803 441.489 322.481 440.023 322.212 438.528C322.187 438.415 322.167 438.304 322.152 438.195C325.601 437.807 329.502 440.189 332.586 441.412C339.936 444.336 347.466 446.792 354.793 449.789C358.166 451.165 361.589 452.614 364.888 454.089C368.108 455.531 370.68 458.05 373.914 459.499C377.529 461.121 381.154 462.722 384.823 464.228C392.629 467.431 400.521 470.521 407.838 474.765C417.547 480.414 426.676 486.029 434.421 494.37C441.642 502.176 447.381 512.477 452.385 521.804C457.921 532.126 462.095 543.666 465.837 554.745C466.741 557.43 468.07 560.135 468.595 562.916C469.592 568.153 469.924 573.616 470.721 578.913C471.619 584.894 472.437 590.893 473.177 596.91C474.689 609.129 475.919 621.384 476.979 633.649C478.331 649.29 478.162 665.027 479.84 680.645C481.478 695.931 487.446 709.668 490.025 724.678C491.686 734.414 489.749 744.18 489.114 753.92C488.782 759.164 490.699 764.221 490.636 769.448C490.576 774.473 489.23 779.384 489.091 784.425L419.485 784.428Z" fill="#D1DEFF"/>
<path d="M134.567 504.502C134.042 502.02 133.72 499.517 133.238 496.989C132.747 494.33 132.145 491.672 131.544 489.014C129.038 477.951 127.151 467.65 130.64 456.552C133.773 446.583 139.206 437.471 141.586 427.263C143.217 420.265 142.828 413.233 142.602 406.099C142.317 397.356 142.772 388.584 142.825 379.848C142.862 373.727 142.16 364.831 148.215 361.116C149.936 360.063 150.983 360.043 152.821 360.873C158.067 363.243 159.054 371.002 159.28 375.97C159.915 389.883 159.393 403.75 159.337 417.676C159.337 418.43 159.476 418.896 159.506 419.584C161.415 419.501 163.323 419.734 165.155 420.275C173.273 422.72 178.779 429.931 183.764 436.448C184.897 431.689 187.535 425.93 192.51 424.256C194.022 423.747 195.318 423.392 196.83 423.943C199.116 424.784 201.216 426.203 202.306 428.439C204.659 433.248 202.226 439.242 201.166 444.08C200.435 447.42 199.541 450.696 199.561 454.176C199.561 457.967 200.206 461.719 200.299 465.507C200.375 468.584 200.359 471.688 200.13 474.771C199.884 478.528 199.208 482.244 198.116 485.847C195.428 494.397 190.184 501.78 186.605 509.935C185.728 511.929 184.99 513.979 184.279 516.009C182.166 521.888 180.105 527.616 174.732 531.73C167.661 537.16 158.197 535.385 151.009 531.159C147.081 528.851 143.619 525.827 140.805 522.243C139.24 520.249 138.708 518.84 138.259 516.435C137.674 513.288 136.149 510.281 135.252 507.213C134.984 506.314 134.756 505.41 134.567 504.502Z" fill="#F5B49B"/>
<path d="M311.854 366.788C313.516 370.892 309.9 375.504 307.202 378.289C302.706 382.908 296.831 385.6 290.295 384.742C286.616 384.264 283.689 383.443 280.558 381.386C277.724 379.522 275.049 377.292 273.025 374.554C271.444 372.411 270.191 368.513 271.969 366.107C273.441 364.113 276.265 363.422 278.615 363.668C280.798 363.891 283.037 363.924 285.227 364.083C287.271 364.191 289.319 364.181 291.361 364.054C294.04 363.931 296.738 364.054 299.4 363.721C301.832 363.389 304.211 362.392 306.687 362.934C308.97 363.422 310.93 364.522 311.854 366.788Z" fill="white"/>
<path d="M207.766 334.682C207.39 332.024 207.101 329.365 206.769 326.743C206.436 323.862 206.184 320.905 205.29 318.104C203.496 312.481 200.02 307.586 198.109 302.011C197.212 299.392 196.7 297.009 196.737 294.228C196.783 291.204 197.182 288.204 197.444 285.193C197.876 280.159 198.93 275.198 200.103 270.29C201.655 263.83 203.981 257.151 203.283 250.441C203.2 249.664 203.1 248.89 203 248.115C202.359 243.051 204.07 239.3 206.387 234.947C209.959 228.221 215.289 221.987 222.124 218.398C229.634 214.46 238.805 213.128 246.654 209.722C250.026 208.25 253.272 206.506 256.361 204.508C257.627 203.691 258.59 202.637 259.923 201.946C261.933 200.906 264.06 200.059 266.127 199.172C268.627 198.093 271.241 197.3 273.919 196.809C282.165 195.389 290.625 195.843 298.672 198.138C306.414 200.358 314.456 205.116 316.373 213.523C316.865 215.69 318.487 215.484 320.454 215.484C326.269 214.155 332.51 215.484 337.683 218.322C345.213 222.446 347.755 229.62 351.806 236.598C355.405 242.802 360.446 247.986 364.845 253.595C370.451 260.736 374.721 268.798 373.332 278.152C372.668 282.508 372.003 286.599 372.149 290.972C372.285 295.421 370.155 300.459 369.056 304.722C368.334 307.483 368.059 310.477 366.989 313.083C364.4 319.307 363.978 325.869 364.274 332.495C364.294 332.977 364.314 333.459 364.344 333.944C364.404 335.718 364.355 337.493 364.197 339.261C364.146 340.519 363.922 341.765 363.533 342.963C363.154 344.006 362.28 345.621 361.011 345.797C356.86 346.412 357.658 334.36 357.595 332.14C357.385 324.829 356.089 316.625 351.872 310.424C349.683 307.208 348.34 303.137 347.443 299.355C346.446 295.165 346.184 291.218 346.187 286.944C346.187 280.298 346.675 273.579 343.113 267.531C339.857 262.005 333.168 259.556 327.063 259.104C325.598 258.995 324.667 259.088 323.235 259.001C313.359 258.407 303.63 259.088 294.448 262.946C291.532 264.132 288.401 264.698 285.254 264.607C277.206 264.461 269.593 261.244 261.797 259.623C258.065 258.843 254.241 258.597 250.439 258.892C246.422 259.168 242.391 259.417 239.051 261.985C236.041 264.312 233.984 267.634 232.817 271.22C232.039 273.706 231.53 276.268 231.299 278.863C230.967 282.109 231.91 285.2 231.631 288.413C231.166 294.015 230.136 299.379 227.424 304.363C226.72 305.659 226.238 307.045 225.646 308.387C225.108 309.604 224.297 310.497 223.573 311.601C221.985 314.016 220.223 316.362 219.12 319.057C216.611 325.208 218.193 331.947 218.283 338.331C218.323 340.949 218.283 343.797 216.578 345.947C214.8 348.166 212.424 347.552 210.73 345.558C208.959 343.484 208.763 340.846 208.317 338.281C208.124 337.058 207.932 335.878 207.766 334.682Z" fill="#1E244A"/>
<path d="M322.152 438.195C322.168 438.308 322.187 438.419 322.212 438.528C322.095 438.458 321.983 438.471 321.946 438.215C322.012 438.209 322.102 438.202 322.152 438.195Z" fill="#8CC295"/>
<path d="M325.219 325.358C325.671 327.684 324.913 330.179 323.627 332.123C322.195 334.283 319.042 334.562 316.696 333.918C311.459 332.482 309.917 326.275 313.579 322.377C315.536 320.297 318.852 318.818 321.59 320.267C323.275 321.157 324.86 323.507 325.219 325.358Z" fill="#2B1A0F"/>
<path d="M254.646 734.168C257.969 736.76 256.567 741 254.254 743.748C251.941 746.496 246.797 744.137 245.574 741.399C244.022 737.93 246.063 733.304 250.087 733.022C251.941 732.892 253.091 732.959 254.646 734.168Z" fill="#37628F"/>
<path d="M186.525 520.618C191.144 534.93 183.571 543.198 181.491 556.589C179.829 567.309 183.817 577.006 183.388 587.476C183.099 594.232 179.351 600.017 177.613 606.394C176.853 609.254 176.276 612.16 175.885 615.093C172.004 643.036 165.717 670.836 160.247 698.556C158.918 705.202 157.798 712.37 156.087 719.385C153.917 728.28 150.82 736.92 145.277 743.888C132.118 760.43 100.48 766.85 83.7759 751.607C73.8071 742.506 69.969 728.014 68.6099 715.055C65.5927 686.308 74.259 655.517 83.8723 628.764C87.2418 619.403 91.7876 610.518 95.2169 601.183C98.4556 592.523 100.577 583.485 101.531 574.287C102.195 567.698 103.764 561.245 106.92 555.386C110.625 548.514 117.032 543.573 119.295 535.887C122.372 525.433 120.395 513.318 131.048 506.572C132.241 505.818 133.61 505.439 134.544 504.505C134.735 505.409 134.956 506.31 135.209 507.207C136.106 510.274 137.631 513.281 138.216 516.428C138.665 518.834 139.196 520.239 140.761 522.237C143.576 525.82 147.037 528.844 150.966 531.152C158.154 535.369 167.618 537.153 174.689 531.724C180.062 527.61 182.122 521.881 184.236 516.003C185.914 516.893 185.98 518.894 186.525 520.618Z" fill="#D1DEFF"/>
<path d="M259.075 438.74C259.075 438.504 259.075 438.275 259.075 438.043C259.326 433.345 259.333 428.638 259.095 423.94C258.956 421.591 258.73 419.248 258.381 416.925C258.231 415.928 257.916 414.958 257.74 414.021C257.58 413.144 257.823 411.791 257.211 411.067L257.647 410.316C258.205 410.648 258.77 410.96 259.338 411.283C259.88 411.974 260.391 412.652 260.876 413.164C263.601 416.038 266.107 418.902 269.29 421.308C273.942 424.827 278.83 428.366 284.313 430.499C290.725 432.995 297.458 434.57 304.311 435.178C310.292 435.657 315.852 434.181 321.617 433.829C321.677 434.69 321.756 435.544 321.863 436.391C321.936 436.999 322.029 437.597 322.135 438.195C322.069 438.195 321.996 438.195 321.929 438.222C321.966 438.478 322.079 438.465 322.195 438.534C322.464 440.03 322.787 441.495 323.066 442.971C323.489 444.998 323.668 447.068 323.601 449.138C323.37 453.052 322.339 456.877 320.57 460.376C317.121 467.305 311.09 473.047 303.852 475.861C302.427 476.416 301.014 477.054 299.569 477.559C296.896 478.455 294.077 478.834 291.262 478.676C288.441 478.494 285.645 478.028 282.918 477.287C278.465 476.1 274.75 474.884 270.955 472.11C265.249 467.923 260.83 461.808 259.049 454.917C258.363 452.501 258.288 449.952 258.833 447.5C259.067 446.263 259.179 445.007 259.165 443.748C259.162 442.063 259.046 440.402 259.075 438.74Z" fill="#F5B49B"/>
<path d="M331.406 299.13C332.52 300.941 331.489 302.888 329.489 303.184C327.621 303.463 325.797 302.649 324.076 302.05C323.292 301.775 322.448 301.449 321.653 301.256C320.657 301.014 319.696 301.323 318.703 301.293C315.838 301.203 313.306 302.306 310.631 303.157C309.92 303.38 309.01 303.463 308.305 303.051C305.856 301.642 307.773 299.246 309.249 297.933C310.187 297.066 311.288 296.395 312.489 295.959C314.15 295.331 316.054 294.63 317.805 294.378C319.333 294.112 320.89 294.05 322.434 294.192C325.551 294.544 329.705 296.352 331.406 299.13Z" fill="#1E244A"/>
<path d="M268.124 299.13C269.24 300.941 268.207 302.888 266.203 303.184C264.336 303.463 262.518 302.649 260.797 302.05C260.013 301.775 259.169 301.449 258.371 301.256C257.374 301.014 256.414 301.323 255.417 301.293C252.552 301.203 250.024 302.306 247.345 303.157C246.641 303.38 245.73 303.463 245.019 303.051C242.57 301.642 244.484 299.246 245.96 297.933C246.898 297.065 248.001 296.394 249.203 295.959C250.864 295.331 252.768 294.63 254.52 294.378C256.043 294.117 257.593 294.058 259.132 294.202C262.252 294.544 266.413 296.352 268.124 299.13Z" fill="#1E244A"/>
<path d="M262.903 325.358C263.355 327.684 262.598 330.179 261.308 332.123C259.876 334.283 256.723 334.562 254.377 333.918C249.143 332.482 247.601 326.275 251.26 322.377C253.22 320.297 256.533 318.818 259.271 320.267C260.96 321.157 262.545 323.507 262.903 325.358Z" fill="#2B1A0F"/>
<path d="M259.355 411.283C258.786 410.951 258.221 410.641 257.663 410.316C254.42 408.455 251.24 406.474 248.12 404.268C241.976 399.918 235.396 394.944 230.86 388.863C228.175 385.267 225.397 381.821 222.589 378.306C220.09 375.176 218.476 371.447 216.056 368.264C213.484 364.874 210.587 364.336 207.011 362.312C203.356 360.245 199.953 357.424 197.508 354.005C196.551 352.676 195.547 351.679 194.876 350.167C194.111 348.56 193.479 346.893 192.985 345.182C192.071 341.71 192.025 337.972 193.417 334.612C194.029 333.224 194.993 332.02 196.214 331.119C197.434 330.218 198.869 329.651 200.375 329.475C204.34 329.079 205.692 331.95 207.766 334.662C207.932 335.858 208.115 337.048 208.324 338.241C208.769 340.806 208.965 343.445 210.736 345.518C212.431 347.512 214.807 348.127 216.585 345.907C218.306 343.757 218.329 340.922 218.289 338.291C218.2 331.891 216.628 325.152 219.127 319.017C220.23 316.323 221.991 313.977 223.58 311.561C224.304 310.458 225.115 309.567 225.653 308.347C226.245 307.018 226.726 305.619 227.431 304.323C230.142 299.339 231.173 293.972 231.638 288.373C231.907 285.16 230.973 282.059 231.305 278.823C231.536 276.228 232.045 273.666 232.824 271.18C233.98 267.608 236.037 264.262 239.048 261.959C242.388 259.39 246.418 259.141 250.436 258.865C254.237 258.571 258.061 258.817 261.794 259.596C269.589 261.231 277.202 264.448 285.25 264.581C288.397 264.672 291.529 264.106 294.445 262.919C303.63 259.061 313.356 258.38 323.232 258.975C324.664 259.061 325.595 258.975 327.06 259.078C333.164 259.536 339.853 261.979 343.11 267.505C346.672 273.553 346.194 280.268 346.184 286.918C346.184 291.191 346.443 295.139 347.44 299.329C348.337 303.11 349.679 307.181 351.869 310.398C356.086 316.598 357.382 324.789 357.591 332.113C357.654 334.333 356.857 346.402 361.007 345.771C362.277 345.581 363.151 343.98 363.529 342.936C363.919 341.738 364.143 340.493 364.194 339.234C364.352 337.467 364.401 335.691 364.34 333.918C364.31 333.432 364.29 332.951 364.27 332.469H364.467C367.982 327.205 375.565 329.927 377.655 334.958C379.094 338.424 379.041 342.268 378.101 345.867C377.589 347.626 376.935 349.341 376.147 350.994C375.456 352.559 374.419 353.586 373.435 354.962C370.906 358.484 367.377 361.402 363.616 363.529C360.845 365.104 357.917 366.37 355.079 367.808L354.876 367.719C351.281 375.93 346.842 384.437 341.332 391.086C337.012 396.293 331.769 401.427 326.887 406.122C325.382 407.56 323.803 408.92 322.159 410.196C313.818 416.686 302.487 422.332 292.784 422.651V422.867C289.055 422.729 285.354 422.157 281.758 421.162C277.368 419.966 273.065 418.57 269.044 416.463C265.748 414.749 262.521 413.061 259.355 411.283ZM329.502 303.184C331.496 302.888 332.533 300.941 331.42 299.13C329.705 296.352 325.551 294.544 322.418 294.202C320.878 294.057 319.326 294.117 317.802 294.378C316.054 294.644 314.147 295.331 312.485 295.959C311.285 296.395 310.183 297.066 309.246 297.933C307.77 299.246 305.853 301.642 308.302 303.051C309.02 303.463 309.93 303.383 310.628 303.157C313.286 302.306 315.835 301.203 318.699 301.293C319.696 301.323 320.663 301.014 321.65 301.256C322.444 301.449 323.288 301.775 324.073 302.05C325.811 302.649 327.635 303.463 329.502 303.184ZM323.627 332.123C324.913 330.179 325.671 327.69 325.219 325.358C324.86 323.507 323.275 321.157 321.59 320.267C318.852 318.818 315.536 320.297 313.579 322.377C309.923 326.265 311.459 332.482 316.696 333.918C319.042 334.562 322.195 334.283 323.627 332.123ZM307.192 378.289C309.9 375.504 313.506 370.892 311.844 366.788C310.92 364.522 308.96 363.422 306.684 362.927C304.208 362.389 301.829 363.399 299.396 363.715C296.738 364.047 294.036 363.931 291.358 364.047C289.316 364.175 287.267 364.185 285.224 364.077C283.034 363.917 280.794 363.884 278.611 363.661C276.245 363.416 273.421 364.107 271.965 366.101C270.187 368.506 271.44 372.414 273.022 374.547C275.046 377.286 277.721 379.515 280.555 381.379C283.685 383.436 286.613 384.257 290.291 384.736C296.821 385.573 302.696 382.915 307.192 378.289ZM266.203 303.19C268.197 302.894 269.24 300.947 268.124 299.136C266.413 296.358 262.252 294.55 259.119 294.208C257.58 294.064 256.029 294.124 254.506 294.384C252.762 294.65 250.851 295.338 249.19 295.966C247.988 296.401 246.885 297.072 245.946 297.94C244.471 299.252 242.557 301.648 245.006 303.057C245.724 303.469 246.634 303.39 247.332 303.164C250.01 302.313 252.539 301.21 255.404 301.299C256.4 301.329 257.374 301.02 258.358 301.263C259.155 301.456 259.999 301.781 260.783 302.057C262.518 302.649 264.336 303.463 266.203 303.184V303.19ZM261.308 332.13C262.598 330.186 263.355 327.697 262.904 325.364C262.545 323.513 260.956 321.164 259.272 320.274C256.533 318.825 253.22 320.303 251.26 322.384C247.605 326.271 249.143 332.489 254.377 333.924C256.723 334.562 259.876 334.283 261.308 332.123V332.13Z" fill="#F5B49B"/>
<path d="M124.386 281.541C122.674 282.262 120.824 283.635 120.498 285.133C120.318 285.944 120.568 286.795 120.355 287.609C119.996 288.938 118.547 289.603 117.511 290.533C116.649 291.326 116.041 292.356 115.763 293.494C115.485 294.631 115.55 295.825 115.949 296.926C116.613 298.668 118.115 300.097 118.311 301.951C118.478 303.522 117.723 305.373 118.787 306.543C119.687 307.54 121.285 307.307 122.542 307.773C124.157 308.367 125.124 310.099 126.695 310.796C128.968 311.83 131.56 310.444 134.056 310.335C135.568 310.265 137.046 310.667 138.558 310.856C140.07 311.046 141.702 310.956 142.908 310.039C144.237 309.042 144.709 307.291 145.693 305.955C146.676 304.619 148.079 303.758 149.348 302.722C150.617 301.685 151.774 300.332 151.897 298.708C152.063 296.501 150.288 294.66 149.657 292.54C149.242 291.154 149.325 289.672 149.172 288.22C149.026 286.871 148.58 285.097 147.178 284.565C146.414 284.276 145.576 284.263 144.789 284.063C142.287 283.422 140.615 281.019 138.233 280.026C136.701 279.385 134.963 279.361 133.335 279.694C131.803 279.996 130.248 280.993 128.682 281.023C127.117 281.053 125.851 280.9 124.386 281.541Z" fill="white"/>
<path d="M276.577 762.533C275.401 759.001 275.484 755.425 274.86 751.743C273.358 742.891 272.367 733.959 271.576 725.02C271.201 720.75 271.43 715.985 270.477 711.815C269.719 708.492 269.48 705.365 269.297 701.939C268.333 685.448 265.499 669.119 260.85 653.267C261.039 654.407 261.222 655.554 261.385 656.707C263.189 669.44 264.12 682.293 264.708 695.12C264.731 695.648 264.758 696.177 264.781 696.705C265.08 703.318 265.296 709.931 265.505 716.54C265.921 729.546 266.28 742.316 266.233 755.355C266.203 765.052 265.851 774.745 265.379 784.428H279.535C279.316 781.514 278.92 778.596 278.518 775.715C277.933 771.495 277.907 766.574 276.577 762.533Z" fill="#EDEDED"/>
<path d="M351.593 493.968C350.709 488.512 350.331 483.082 348.978 477.686C346.32 467.132 341.518 456.844 333.277 449.51C330.23 446.799 326.056 445.486 323.082 442.964C323.506 444.991 323.685 447.062 323.617 449.131C323.387 453.045 322.355 456.87 320.587 460.37C317.138 467.298 311.106 473.04 303.869 475.855C302.443 476.41 301.031 477.048 299.586 477.553C296.913 478.449 294.093 478.828 291.278 478.669C288.452 478.49 285.651 478.027 282.918 477.287C278.465 476.1 274.75 474.884 270.955 472.11C265.25 467.923 260.83 461.808 259.049 454.917C258.363 452.501 258.289 449.952 258.833 447.5C259.067 446.263 259.179 445.007 259.165 443.748C258.288 444.642 256.407 445.695 255.347 446.652C248.648 452.704 245.252 463.038 242.192 471.279C236.543 486.442 235.399 502.638 235.26 518.678C235.124 535.043 236.144 551.336 238.709 567.525C240.07 576.219 241.894 584.833 244.175 593.331C249.662 613.645 257.371 632.469 260.837 653.268C265.486 669.119 268.32 685.448 269.284 701.939C269.483 705.365 269.706 708.508 270.463 711.815C271.417 715.985 271.188 720.75 271.563 725.02C272.354 733.959 273.344 742.891 274.846 751.743C275.471 755.425 275.388 759.001 276.564 762.533C277.913 766.574 277.933 771.505 278.521 775.715C278.924 778.596 279.319 781.514 279.538 784.428H331.566C331.689 770.957 331.865 757.389 330.665 744.034C329.668 732.803 329.054 721.521 329.356 710.243C329.605 700.979 328.871 691.585 329.183 682.254C329.516 671.813 331.775 661.432 332.204 650.948C332.536 643.129 333.865 635.566 335.527 627.923C337.424 619.154 337.305 610.119 339.7 601.373C342.126 592.54 344.685 583.761 346.446 574.713C348.041 566.485 349.021 558.188 350.706 550C354.531 531.451 354.624 512.663 351.593 493.968Z" fill="#FFFBF2"/>
<path d="M300.553 255.203C300.369 255.203 300.189 255.149 300.036 255.047C299.883 254.945 299.763 254.8 299.692 254.63C299.621 254.46 299.602 254.274 299.637 254.093C299.672 253.912 299.759 253.746 299.888 253.615C306.683 246.73 309.81 237.665 311.977 229.733C312.005 229.61 312.058 229.495 312.132 229.393C312.205 229.292 312.299 229.206 312.407 229.141C312.515 229.077 312.634 229.035 312.759 229.017C312.883 229 313.01 229.008 313.131 229.041C313.253 229.074 313.366 229.131 313.465 229.209C313.563 229.287 313.645 229.383 313.706 229.494C313.766 229.604 313.804 229.725 313.816 229.85C313.828 229.975 313.816 230.101 313.778 230.221C309.79 244.799 305.201 250.89 301.217 254.928C301.13 255.016 301.027 255.085 300.913 255.133C300.799 255.18 300.676 255.204 300.553 255.203Z" fill="black"/>
<path d="M315.556 255.562C315.336 255.562 315.123 255.484 314.954 255.342C314.786 255.199 314.674 255.002 314.637 254.785C314.6 254.568 314.641 254.345 314.752 254.155C314.864 253.965 315.039 253.821 315.247 253.748C320.113 252.068 324.608 249.462 328.485 246.075C328.672 245.912 328.916 245.829 329.163 245.845C329.41 245.861 329.641 245.975 329.805 246.162C329.968 246.348 330.051 246.592 330.035 246.839C330.018 247.086 329.905 247.317 329.718 247.481C325.659 251.023 320.956 253.75 315.865 255.512C315.765 255.545 315.661 255.562 315.556 255.562Z" fill="black"/>
<path d="M272.696 246.517C272.483 246.517 272.276 246.443 272.111 246.309C271.945 246.175 271.83 245.988 271.786 245.779C269.686 236.06 264.236 228.706 256.832 225.606C256.719 225.558 256.616 225.489 256.53 225.401C256.443 225.314 256.375 225.211 256.329 225.097C256.282 224.983 256.259 224.862 256.259 224.739C256.26 224.616 256.285 224.494 256.332 224.381C256.38 224.268 256.449 224.165 256.536 224.079C256.624 223.992 256.727 223.924 256.841 223.878C256.955 223.831 257.076 223.808 257.199 223.808C257.322 223.809 257.443 223.834 257.557 223.881C265.532 227.224 271.384 235.063 273.613 245.387C273.665 245.629 273.618 245.881 273.485 246.089C273.351 246.297 273.14 246.444 272.899 246.497C272.832 246.511 272.764 246.517 272.696 246.517Z" fill="black"/>
<path d="M241.261 246.075C241.103 246.074 240.947 246.033 240.809 245.956C235.16 242.822 229.767 241.589 224.739 242.3C224.618 242.317 224.494 242.31 224.375 242.279C224.256 242.249 224.145 242.195 224.047 242.121C223.949 242.047 223.866 241.954 223.804 241.849C223.742 241.743 223.701 241.626 223.684 241.504C223.667 241.383 223.674 241.259 223.705 241.14C223.736 241.022 223.79 240.91 223.864 240.812C223.938 240.714 224.03 240.632 224.136 240.569C224.242 240.507 224.359 240.466 224.48 240.449C229.92 239.685 235.718 240.991 241.716 244.327C241.898 244.428 242.041 244.585 242.123 244.776C242.205 244.966 242.221 245.179 242.169 245.38C242.116 245.58 241.999 245.758 241.835 245.885C241.67 246.011 241.468 246.079 241.261 246.078V246.075Z" fill="black"/>
<path d="M293.066 351.443C291.994 351.424 290.937 351.183 289.962 350.735C288.382 350.098 286.931 349.18 285.679 348.024C285.53 347.846 285.452 347.619 285.46 347.388C285.469 347.156 285.563 346.935 285.726 346.77C285.888 346.604 286.106 346.504 286.337 346.49C286.569 346.476 286.797 346.549 286.978 346.694C288.072 347.689 289.336 348.477 290.71 349.021C291.638 349.472 292.676 349.648 293.701 349.526C294.406 349.408 295.093 349.194 295.741 348.891C296.628 348.482 299.313 347.229 297.549 341.441C296.964 339.527 296.276 337.603 295.611 335.745C295.003 334.047 294.375 332.289 293.824 330.532C293.552 329.565 293.388 328.571 293.335 327.567C293.295 327.109 293.259 326.674 293.195 326.238C292.717 322.836 293.016 319.327 293.408 316.04C293.423 315.918 293.461 315.801 293.521 315.694C293.581 315.587 293.662 315.493 293.758 315.417C293.855 315.341 293.965 315.285 294.083 315.252C294.201 315.219 294.325 315.21 294.447 315.224C294.568 315.239 294.686 315.277 294.793 315.338C294.9 315.398 294.994 315.478 295.07 315.575C295.145 315.671 295.201 315.781 295.234 315.9C295.267 316.018 295.277 316.141 295.262 316.263C294.884 319.423 294.598 322.786 295.046 325.979C295.113 326.468 295.156 326.946 295.196 327.408C295.237 328.276 295.374 329.136 295.605 329.973C296.146 331.698 296.768 333.436 297.369 335.117C298.034 336.998 298.738 338.942 299.336 340.899C301.187 346.98 298.828 349.539 296.525 350.589C295.721 350.965 294.869 351.229 293.993 351.373C293.686 351.42 293.376 351.444 293.066 351.443Z" fill="#AB684D"/>
<path d="M210.59 357.148C210.416 357.149 210.246 357.101 210.098 357.01C209.951 356.919 209.831 356.788 209.753 356.633C209.271 355.67 208.354 355.048 207.38 354.39C206.254 353.629 204.974 352.765 204.369 351.25C203.765 349.735 204.177 348.306 204.552 347.09C204.723 346.592 204.854 346.08 204.944 345.561C204.975 345.04 204.874 344.52 204.649 344.049C204.549 343.777 204.446 343.498 204.359 343.185C204.087 342.188 203.841 341.59 203.263 341.115C201.774 339.896 200.445 339.294 199.521 339.42C199.263 339.463 199.018 339.561 198.801 339.707C198.584 339.854 198.401 340.045 198.265 340.268C198.12 340.463 197.904 340.595 197.663 340.633C197.422 340.671 197.176 340.614 196.977 340.474C196.778 340.333 196.642 340.12 196.597 339.881C196.553 339.641 196.604 339.394 196.74 339.191C197.021 338.756 197.392 338.386 197.828 338.106C198.265 337.826 198.756 337.643 199.269 337.57C200.757 337.37 202.499 338.075 204.446 339.673C205.503 340.537 205.875 341.64 206.161 342.69C206.227 342.93 206.31 343.162 206.403 343.411C206.745 344.17 206.879 345.006 206.792 345.834C206.69 346.448 206.537 347.052 206.337 347.641C206.004 348.741 205.725 349.609 206.104 350.559C206.483 351.509 207.39 352.144 208.43 352.845C209.47 353.546 210.726 354.397 211.421 355.796C211.491 355.938 211.524 356.096 211.517 356.255C211.509 356.414 211.462 356.568 211.378 356.703C211.295 356.839 211.179 356.95 211.04 357.028C210.902 357.106 210.746 357.147 210.587 357.148H210.59Z" fill="#AB684D"/>
<path d="M361.466 358.258C361.321 358.259 361.179 358.225 361.05 358.159C360.941 358.104 360.843 358.028 360.762 357.935C360.682 357.843 360.62 357.735 360.581 357.619C360.543 357.503 360.527 357.38 360.536 357.257C360.544 357.135 360.577 357.016 360.632 356.906C361.353 355.47 362.625 354.62 363.715 353.872C364.805 353.124 365.709 352.52 366.124 351.499C366.54 350.479 366.224 349.562 365.885 348.469C365.679 347.861 365.522 347.238 365.413 346.605C365.327 345.755 365.466 344.898 365.815 344.119C365.909 343.863 365.998 343.621 366.065 343.375C366.36 342.292 366.729 341.162 367.826 340.271C369.82 338.63 371.621 337.899 373.143 338.108C373.668 338.184 374.17 338.372 374.617 338.659C375.063 338.945 375.443 339.324 375.731 339.769C375.867 339.972 375.918 340.219 375.874 340.459C375.829 340.699 375.693 340.911 375.494 341.052C375.295 341.193 375.049 341.25 374.808 341.211C374.567 341.173 374.351 341.042 374.206 340.846C374.062 340.611 373.868 340.409 373.639 340.256C373.409 340.103 373.149 340.002 372.877 339.959C371.913 339.829 370.531 340.451 368.989 341.717C368.384 342.212 368.132 342.83 367.846 343.867C367.759 344.199 367.653 344.478 367.55 344.757C367.337 345.349 367.168 345.814 367.241 346.332C367.335 346.869 367.471 347.398 367.646 347.914C368.035 349.167 368.477 350.572 367.839 352.191C367.201 353.809 365.958 354.596 364.742 355.421C363.745 356.085 362.785 356.75 362.283 357.747C362.206 357.898 362.089 358.025 361.945 358.115C361.801 358.205 361.635 358.255 361.466 358.258Z" fill="#AB684D"/>
<path d="M180.653 466.71C180.476 466.709 180.301 466.676 180.135 466.613C180.101 466.597 180.063 466.588 180.025 466.587C179.784 466.56 179.563 466.441 179.408 466.254C179.254 466.067 179.178 465.827 179.197 465.586C179.216 465.344 179.328 465.119 179.51 464.958C179.692 464.798 179.929 464.715 180.172 464.726C180.347 464.738 180.52 464.772 180.687 464.829C180.776 464.809 180.868 464.803 180.959 464.809C183.438 464.992 185.611 461.902 186.376 459.918C187.672 456.615 188.037 452.793 187.452 448.553C186.96 444.968 186.319 441.243 184.369 438.737L183.265 437.302C183.115 437.105 183.048 436.856 183.081 436.61C183.114 436.364 183.243 436.141 183.44 435.991C183.637 435.84 183.886 435.774 184.131 435.806C184.377 435.839 184.6 435.968 184.751 436.165C185.116 436.648 185.482 437.124 185.847 437.594C188.077 440.478 188.778 444.466 189.303 448.301C189.928 452.86 189.526 456.997 188.114 460.596C187.516 462.114 186.617 463.497 185.472 464.66C184.066 466.055 182.511 466.753 180.969 466.693C180.865 466.708 180.759 466.713 180.653 466.71Z" fill="#AB684D"/>
<path d="M148.311 424.452C148.12 424.447 147.935 424.384 147.78 424.27C147.626 424.157 147.511 423.999 147.45 423.817C147.388 423.636 147.384 423.44 147.438 423.257C147.491 423.073 147.6 422.91 147.749 422.79C150.893 420.457 154.622 419.042 158.523 418.703C158.769 418.682 159.014 418.76 159.204 418.919C159.393 419.079 159.512 419.307 159.533 419.554C159.554 419.8 159.476 420.045 159.317 420.235C159.157 420.424 158.929 420.543 158.682 420.564C155.131 420.872 151.736 422.16 148.873 424.282C148.708 424.398 148.512 424.457 148.311 424.452Z" fill="#AB684D"/>
<path d="M167.305 480.899C166.039 480.899 164.853 480.567 164.002 479.649C163.864 479.556 163.717 479.477 163.563 479.414C163.058 479.181 162.211 478.789 162.128 477.812C162.109 477.577 162.18 477.343 162.327 477.159C162.473 476.974 162.684 476.851 162.917 476.815C163.15 476.78 163.388 476.833 163.583 476.966C163.778 477.098 163.916 477.3 163.969 477.529C164.092 477.599 164.218 477.662 164.348 477.719C164.728 477.87 165.075 478.096 165.368 478.383C166.767 479.882 170.718 478.52 172.442 477.387C177.261 474.17 180.75 466.185 177.703 457.725C177.34 456.728 176.629 455.731 175.942 454.734C175.672 454.355 175.397 453.966 175.141 453.574C171.08 447.393 167.073 443.845 163.225 443.024C159.091 442.147 154.475 442.844 152.093 443.339C151.972 443.367 151.846 443.371 151.724 443.349C151.602 443.328 151.485 443.283 151.38 443.216C151.276 443.149 151.186 443.062 151.115 442.959C151.045 442.857 150.995 442.742 150.97 442.62C150.944 442.499 150.943 442.374 150.967 442.252C150.991 442.13 151.038 442.014 151.107 441.911C151.176 441.807 151.265 441.719 151.369 441.651C151.472 441.582 151.588 441.535 151.71 441.512C154.239 440.987 159.147 440.249 163.613 441.199C168.02 442.137 172.303 445.852 176.699 452.551C176.938 452.91 177.194 453.272 177.463 453.654C178.224 454.721 179.009 455.827 179.457 457.08C181.966 464.058 180.723 474.09 173.476 478.928C172.21 479.762 169.625 480.899 167.305 480.899Z" fill="#AB684D"/>
<path d="M154.758 490.815C153.881 490.805 153.019 490.589 152.241 490.185C151.463 489.781 150.791 489.2 150.278 488.489C149.342 487.283 148.759 485.842 148.594 484.325C148.566 483.743 148.587 483.159 148.657 482.58C148.736 481.7 148.813 480.866 148.51 480.218C147.756 478.593 146.367 477.47 144.895 476.28L144.407 475.885C144.214 475.728 144.093 475.501 144.068 475.254C144.043 475.007 144.117 474.761 144.274 474.569C144.431 474.377 144.657 474.255 144.904 474.23C145.151 474.205 145.397 474.279 145.59 474.436L146.068 474.828C147.643 476.097 149.268 477.413 150.205 479.433C150.717 480.537 150.611 481.71 150.514 482.756C150.457 483.235 150.438 483.717 150.458 484.199C150.594 485.352 151.045 486.447 151.76 487.362C153.143 489.166 155.223 489.469 157.193 488.156C160.619 485.873 162.002 481.092 162.151 477.38C162.206 475.31 161.908 473.246 161.271 471.276C160.583 469.043 158.752 467.185 156.981 465.391L156.555 464.959C154.644 462.952 152.313 461.391 149.73 460.386C149.498 460.298 149.311 460.122 149.209 459.895C149.108 459.669 149.1 459.412 149.188 459.18C149.276 458.948 149.453 458.761 149.679 458.659C149.905 458.558 150.163 458.55 150.395 458.638C153.237 459.739 155.8 461.455 157.901 463.663L158.323 464.091C160.164 465.955 162.248 468.079 163.068 470.737C163.762 472.906 164.083 475.177 164.019 477.453C163.799 482.856 161.633 487.422 158.227 489.708C157.206 490.414 155.998 490.799 154.758 490.815Z" fill="#AB684D"/>
<path d="M165.973 492.725C165.88 492.725 165.789 492.711 165.7 492.685C165.464 492.613 165.266 492.45 165.149 492.232C165.033 492.014 165.007 491.759 165.079 491.522C166.448 487.013 168.069 483.647 170.346 480.606C170.754 480.065 171.12 479.563 171.482 479.071C172.01 478.35 172.512 477.669 173.107 476.891C173.179 476.788 173.271 476.7 173.378 476.633C173.485 476.566 173.605 476.521 173.729 476.502C173.854 476.482 173.981 476.488 174.104 476.519C174.226 476.55 174.341 476.606 174.441 476.683C174.541 476.759 174.625 476.855 174.687 476.965C174.749 477.075 174.788 477.196 174.802 477.322C174.816 477.447 174.804 477.574 174.767 477.695C174.731 477.816 174.67 477.928 174.589 478.025C174.008 478.789 173.512 479.463 172.987 480.174C172.622 480.673 172.253 481.171 171.841 481.726C169.701 484.584 168.186 487.771 166.856 492.064C166.799 492.254 166.682 492.42 166.523 492.539C166.364 492.658 166.171 492.723 165.973 492.725Z" fill="#AB684D"/>
<path d="M156.286 719.614C156.214 719.614 156.141 719.606 156.07 719.591C155.951 719.562 155.838 719.51 155.739 719.438C155.639 719.366 155.555 719.275 155.491 719.171C155.427 719.066 155.384 718.95 155.365 718.828C155.345 718.707 155.35 718.583 155.379 718.464C156.472 713.872 157.336 709.203 158.17 704.687C158.572 702.501 158.955 700.437 159.363 698.373C160.716 691.515 162.141 684.533 163.524 677.771C167.724 657.212 172.07 635.955 174.991 614.967C175.387 611.994 175.972 609.05 176.742 606.151C177.44 603.771 178.277 601.433 179.248 599.15C180.823 595.239 182.308 591.54 182.484 587.44C182.674 582.93 182.006 578.448 181.358 574.115C180.514 568.466 179.64 562.601 180.594 556.45C181.308 551.864 182.641 547.913 183.917 544.088C186.445 536.588 188.625 530.109 185.655 520.911C185.515 520.479 185.409 520.04 185.302 519.618C184.997 518.382 184.731 517.312 183.834 516.823C183.719 516.769 183.616 516.692 183.532 516.597C183.449 516.501 183.385 516.39 183.346 516.269C183.306 516.148 183.292 516.021 183.303 515.894C183.315 515.768 183.352 515.645 183.413 515.534C183.474 515.422 183.556 515.324 183.656 515.246C183.756 515.167 183.871 515.11 183.994 515.077C184.116 515.045 184.244 515.037 184.37 515.056C184.496 515.074 184.616 515.118 184.724 515.185C186.346 516.066 186.754 517.714 187.117 519.173C187.216 519.581 187.313 519.97 187.449 520.339C190.609 530.125 188.226 537.2 185.704 544.69C184.442 548.438 183.136 552.313 182.448 556.739C181.534 562.61 182.388 568.319 183.212 573.842C183.877 578.265 184.541 582.834 184.355 587.523C184.169 591.946 182.551 595.963 180.986 599.851C180.045 602.067 179.232 604.336 178.553 606.646C177.8 609.468 177.229 612.335 176.845 615.23C173.918 636.291 169.568 657.577 165.358 678.166C163.979 684.912 162.553 691.89 161.201 698.742C160.795 700.792 160.417 702.853 160.011 705.033C159.174 709.572 158.307 714.267 157.203 718.903C157.153 719.107 157.034 719.288 156.868 719.417C156.702 719.546 156.497 719.615 156.286 719.614Z" fill="#2E5378"/>
<path d="M154.588 578.827C154.465 578.827 154.342 578.803 154.228 578.755C154.114 578.708 154.011 578.638 153.924 578.551C145.975 570.576 138.894 561.766 130.699 550.99C130.55 550.793 130.484 550.544 130.518 550.298C130.552 550.053 130.681 549.831 130.879 549.681C131.076 549.531 131.325 549.466 131.571 549.499C131.816 549.533 132.038 549.663 132.188 549.86C140.333 560.577 147.374 569.333 155.246 577.232C155.376 577.363 155.464 577.53 155.499 577.711C155.534 577.892 155.515 578.08 155.444 578.25C155.373 578.42 155.253 578.566 155.1 578.668C154.946 578.771 154.766 578.826 154.581 578.827H154.588Z" fill="#2E5378"/>
<path d="M139.479 599.97C135.089 599.97 130.43 599.146 125.25 597.475C125.132 597.438 125.022 597.379 124.928 597.3C124.833 597.221 124.755 597.123 124.698 597.014C124.641 596.904 124.606 596.785 124.596 596.662C124.585 596.539 124.599 596.415 124.637 596.297C124.675 596.18 124.736 596.071 124.816 595.977C124.896 595.883 124.994 595.806 125.104 595.75C125.214 595.694 125.334 595.661 125.457 595.652C125.58 595.643 125.704 595.658 125.821 595.697C133.72 598.246 140.319 598.754 146.586 597.296C146.828 597.239 147.082 597.281 147.293 597.412C147.503 597.543 147.653 597.752 147.71 597.993C147.766 598.235 147.724 598.489 147.593 598.699C147.462 598.91 147.253 599.06 147.012 599.116C144.542 599.688 142.014 599.975 139.479 599.97Z" fill="#2E5378"/>
<path d="M419.485 785.701C419.362 785.7 419.241 785.675 419.128 785.627C419.015 785.579 418.912 785.51 418.826 785.423C418.74 785.335 418.672 785.232 418.626 785.118C418.58 785.005 418.557 784.883 418.558 784.76C418.617 778.344 418.052 771.721 417.507 765.318C417.032 759.755 416.544 754.02 416.464 748.417C416.318 738.116 415.799 727.665 415.294 717.547C415.115 713.892 414.926 710.133 414.759 706.425C413.762 684.493 412.27 663.615 410.177 642.624C407.971 620.5 406.1 598.857 407.439 577.315C408.406 561.723 411.842 545.082 417.936 526.443C418.016 526.211 418.184 526.02 418.403 525.911C418.623 525.801 418.877 525.783 419.11 525.859C419.343 525.936 419.537 526.101 419.649 526.319C419.762 526.537 419.784 526.791 419.711 527.025C413.666 545.514 410.26 561.999 409.303 577.428C407.974 598.834 409.835 620.393 412.035 642.438C414.131 663.462 415.633 684.364 416.624 706.342C416.793 710.044 416.979 713.812 417.162 717.454C417.664 727.589 418.185 738.056 418.332 748.391C418.411 753.91 418.896 759.629 419.368 765.158C419.917 771.608 420.485 778.274 420.425 784.764C420.425 784.887 420.401 785.01 420.354 785.124C420.307 785.238 420.238 785.341 420.15 785.428C420.063 785.516 419.959 785.585 419.845 785.631C419.73 785.678 419.608 785.702 419.485 785.701Z" fill="#2E5378"/>
<path d="M447.996 749.63C447.801 749.634 447.61 749.576 447.45 749.466C447.289 749.355 447.167 749.197 447.101 749.014C447.035 748.831 447.027 748.632 447.08 748.445C447.132 748.257 447.242 748.091 447.394 747.969C457.287 739.635 464.215 731.314 467.997 723.243C468.047 723.129 468.119 723.027 468.21 722.942C468.3 722.857 468.407 722.79 468.523 722.747C468.639 722.703 468.763 722.684 468.887 722.688C469.011 722.693 469.133 722.723 469.245 722.776C469.358 722.828 469.459 722.903 469.542 722.995C469.625 723.087 469.69 723.194 469.731 723.312C469.772 723.429 469.789 723.553 469.782 723.677C469.775 723.801 469.743 723.922 469.688 724.033C465.797 732.341 458.702 740.887 448.6 749.398C448.434 749.546 448.219 749.628 447.996 749.63Z" fill="#2E5378"/>
<path d="M140.971 344.435C140.836 344.435 140.703 344.409 140.578 344.358C140.166 344.192 139.758 344.003 139.362 343.817C138.823 343.547 138.269 343.311 137.701 343.109C134.78 342.152 131.856 340.909 129.028 339.71L128.21 339.361C127.96 339.248 127.763 339.042 127.663 338.787C127.562 338.531 127.566 338.247 127.673 337.994C127.78 337.741 127.981 337.54 128.235 337.434C128.488 337.328 128.773 337.325 129.028 337.427L129.849 337.759C132.637 338.942 135.518 340.168 138.355 341.099C139.006 341.326 139.642 341.594 140.259 341.899C140.645 342.079 141.01 342.252 141.366 342.395C141.592 342.486 141.779 342.653 141.895 342.867C142.012 343.081 142.05 343.329 142.004 343.568C141.957 343.807 141.829 344.023 141.641 344.178C141.454 344.333 141.218 344.418 140.974 344.418L140.971 344.435Z" fill="#A19086"/>
<path d="M142.473 339.507C142.232 339.496 141.994 339.444 141.771 339.351L141.685 339.321C141.276 339.185 140.934 339.058 140.628 338.935L140.392 338.839C139.856 338.598 139.3 338.404 138.731 338.257C135.956 337.593 133.185 336.692 130.503 335.808C129.623 335.519 128.745 335.23 127.875 334.951C127.631 334.851 127.433 334.662 127.322 334.423C127.211 334.184 127.193 333.911 127.274 333.66C127.354 333.408 127.526 333.197 127.756 333.066C127.986 332.936 128.256 332.897 128.513 332.957C129.39 333.236 130.274 333.529 131.171 333.821C133.813 334.689 136.541 335.589 139.226 336.22C139.909 336.384 140.576 336.607 141.22 336.885L141.452 336.981C141.712 337.088 142.017 337.197 142.38 337.314L142.469 337.347C142.697 337.334 142.923 337.396 143.113 337.523C143.302 337.65 143.445 337.836 143.519 338.051C143.59 338.245 143.603 338.455 143.557 338.656C143.511 338.857 143.408 339.041 143.26 339.185C143.159 339.291 143.037 339.374 142.901 339.43C142.765 339.485 142.619 339.512 142.473 339.507Z" fill="#A19086"/>
<path d="M142.795 335.396C142.372 335.367 141.967 335.212 141.632 334.951C141.579 334.915 141.529 334.878 141.482 334.851C139.954 334.08 138.322 333.635 136.594 333.167C135.956 332.991 135.295 332.811 134.64 332.615C134.182 332.476 129.935 331.037 128.131 330.249C128.002 330.196 127.884 330.117 127.786 330.018C127.687 329.919 127.61 329.801 127.557 329.672C127.505 329.542 127.479 329.403 127.481 329.264C127.483 329.124 127.513 328.986 127.569 328.858C127.625 328.73 127.706 328.614 127.807 328.518C127.908 328.422 128.027 328.346 128.158 328.297C128.289 328.247 128.428 328.224 128.568 328.229C128.707 328.234 128.845 328.267 128.971 328.325C130.669 329.066 134.823 330.475 135.248 330.605C135.873 330.794 136.521 330.97 137.146 331.14C138.9 331.615 140.715 332.11 142.433 332.981C142.562 333.048 142.687 333.124 142.805 333.21L142.915 333.28C143.163 333.281 143.402 333.371 143.59 333.532C143.779 333.694 143.904 333.916 143.944 334.161C143.983 334.406 143.935 334.657 143.808 334.87C143.68 335.082 143.482 335.243 143.247 335.323C143.102 335.374 142.949 335.398 142.795 335.396Z" fill="#A19086"/>
<path d="M137.501 328.458C137.364 328.457 137.228 328.429 137.101 328.375C136.974 328.322 136.859 328.244 136.762 328.146C136.665 328.047 136.589 327.931 136.538 327.803C136.486 327.676 136.46 327.539 136.461 327.401C136.461 325.175 136.973 322.972 137.458 320.838C137.734 319.616 137.993 318.459 138.173 317.303C138.312 316.376 138.442 315.439 138.575 314.495C139.087 310.783 139.618 306.942 140.924 303.383C141.02 303.12 141.117 302.865 141.217 302.615C140.495 302.466 139.786 302.261 139.096 302.001C137.347 301.386 135.785 300.33 134.561 298.937C134.258 299.233 133.939 299.498 133.64 299.748C133.464 299.894 133.285 300.043 133.118 300.193C132.325 300.97 131.387 301.584 130.357 302.001C129.667 302.261 128.957 302.467 128.234 302.615C128.333 302.865 128.433 303.12 128.529 303.383C129.832 306.942 130.364 310.783 130.879 314.495C131.008 315.439 131.138 316.376 131.281 317.303C131.497 318.715 131.813 320.154 132.118 321.546C132.572 323.437 132.919 325.352 133.158 327.282C133.179 327.421 133.17 327.564 133.134 327.7C133.098 327.837 133.035 327.965 132.948 328.076C132.862 328.188 132.753 328.28 132.63 328.349C132.507 328.418 132.371 328.461 132.23 328.476C132.09 328.491 131.948 328.477 131.813 328.436C131.678 328.395 131.553 328.327 131.444 328.236C131.336 328.146 131.248 328.034 131.183 327.908C131.119 327.783 131.081 327.645 131.072 327.504C130.84 325.652 130.507 323.814 130.075 321.998C129.762 320.573 129.437 319.101 129.211 317.619C129.068 316.685 128.935 315.734 128.805 314.784C128.307 311.179 127.788 307.454 126.562 304.104C126.393 303.639 126.23 303.2 126.031 302.775C124.313 302.841 122.213 302.752 121.069 301.489C120.627 301 120.146 300.12 120.372 298.701C120.598 297.282 121.415 296.75 121.877 296.581C122.741 296.249 123.778 296.551 124.721 297.362C125.765 298.279 126.636 299.377 127.293 300.602H127.366C128.156 300.506 128.929 300.306 129.666 300.007C130.436 299.679 131.135 299.206 131.726 298.614C131.912 298.448 132.108 298.282 132.308 298.119C132.664 297.838 132.997 297.529 133.305 297.196C132.586 295.963 132.088 294.613 131.836 293.208C131.504 291.367 131.713 288.888 133.434 287.928C133.7 287.773 134.002 287.692 134.31 287.692C134.617 287.692 134.919 287.773 135.185 287.928C136.687 288.795 136.847 291.799 136.847 291.829C136.921 293.657 136.568 295.477 135.817 297.146C136.843 298.464 138.228 299.458 139.804 300.01C140.541 300.309 141.314 300.509 142.104 300.605H142.177C142.834 299.381 143.705 298.285 144.749 297.368C145.693 296.554 146.743 296.268 147.597 296.584C148.059 296.754 148.866 297.249 149.099 298.704C149.331 300.16 148.846 301.004 148.404 301.492C147.258 302.755 145.158 302.845 143.443 302.778C143.257 303.19 143.081 303.629 142.908 304.107C141.682 307.457 141.167 311.182 140.668 314.787C140.535 315.738 140.406 316.688 140.263 317.622C140.073 318.855 139.791 320.101 139.518 321.307C139.06 323.331 138.588 325.421 138.575 327.421C138.57 327.701 138.454 327.967 138.252 328.161C138.051 328.356 137.781 328.462 137.501 328.458ZM146.829 298.551C146.553 298.622 146.301 298.764 146.098 298.963C145.516 299.471 145.002 300.051 144.569 300.691C145.513 300.665 146.43 300.522 146.822 300.087C146.895 300.007 147.118 299.754 147.002 299.043C146.991 298.867 146.933 298.697 146.832 298.551H146.829ZM122.571 298.551C122.493 298.701 122.442 298.863 122.422 299.03C122.309 299.751 122.528 299.994 122.601 300.073C122.997 300.509 123.911 300.651 124.854 300.678C124.422 300.038 123.908 299.457 123.326 298.95C123.123 298.746 122.862 298.611 122.578 298.565L122.571 298.551ZM134.245 289.912C133.8 290.43 133.693 291.743 133.889 292.813C134.009 293.471 134.193 294.117 134.438 294.74C134.658 293.793 134.757 292.821 134.73 291.849C134.683 291.185 134.521 290.534 134.252 289.925L134.245 289.912Z" fill="#A84216"/>
<path d="M247.917 658.82C247.693 658.821 247.476 658.741 247.306 658.594C247.136 658.448 247.025 658.245 246.993 658.023C245.548 648.207 242.693 638.823 240.095 630.937C239.194 628.206 238.101 625.398 237.054 622.68C234.788 616.825 232.445 610.77 231.561 604.603C231.54 604.48 231.543 604.353 231.571 604.231C231.599 604.109 231.651 603.994 231.725 603.893C231.798 603.792 231.891 603.706 231.998 603.642C232.105 603.577 232.224 603.535 232.348 603.517C232.472 603.499 232.598 603.506 232.719 603.538C232.84 603.57 232.953 603.626 233.052 603.702C233.151 603.779 233.234 603.874 233.295 603.983C233.356 604.092 233.395 604.213 233.409 604.337C234.263 610.292 236.566 616.246 238.795 622.005C239.855 624.743 240.952 627.578 241.869 630.352C244.494 638.327 247.375 647.795 248.847 657.75C248.865 657.871 248.859 657.995 248.829 658.114C248.799 658.233 248.746 658.345 248.673 658.443C248.6 658.542 248.508 658.625 248.403 658.688C248.298 658.751 248.181 658.792 248.06 658.81L247.917 658.82Z" fill="#2E5378"/>
<path d="M423.213 520.233C423.092 520.233 422.973 520.209 422.861 520.163C422.747 520.117 422.643 520.048 422.556 519.962C422.469 519.876 422.399 519.773 422.352 519.659C422.304 519.546 422.28 519.425 422.279 519.302C422.279 519.179 422.302 519.057 422.349 518.943C423.864 515.232 426.004 511.842 428.098 508.569C429.507 506.349 430.966 504.057 432.182 501.724C432.238 501.615 432.316 501.518 432.41 501.439C432.504 501.36 432.612 501.3 432.729 501.263C432.846 501.225 432.97 501.212 433.092 501.222C433.215 501.233 433.334 501.267 433.443 501.324C433.552 501.38 433.649 501.457 433.728 501.551C433.807 501.645 433.867 501.754 433.904 501.871C433.941 501.988 433.955 502.111 433.945 502.234C433.934 502.356 433.9 502.475 433.843 502.585C432.59 504.99 431.112 507.32 429.683 509.563C427.643 512.769 425.536 516.086 424.084 519.645C424.014 519.818 423.894 519.967 423.739 520.072C423.583 520.177 423.4 520.233 423.213 520.233Z" fill="#2E5378"/>
</svg>
